<svg xmlns="http://www.w3.org/2000/svg" fill="none" viewBox="0 0 33 32" height="32" width="33">
<path fill-opacity="0.87" fill="white" d="M27.1764 13.2431L26.2915 13.9698L31.1862 19.9297L31.8976 19.3455L32.5915 16.9889L31.707 16.6548L31.2161 18.162L27.1764 13.2431ZM24.2712 15.4547C23.9589 15.7112 23.9282 16.1867 24.1918 16.5077C24.4341 16.8027 24.9065 16.865 25.2188 16.6085C25.5485 16.3378 25.5792 15.8622 25.337 15.5673C25.0733 15.2463 24.6009 15.184 24.2712 15.4547ZM20.5439 18.5158C19.2513 19.5774 18.9888 21.115 19.9791 22.3208C20.9552 23.5094 22.4132 23.4451 23.4802 22.5687C24.0094 22.1341 24.266 21.6329 24.4073 21.1682L25.8087 22.9807L22.9719 25.3105L23.6416 26.1259L27.3112 23.1122L24.8402 19.9265L23.9963 20.1547C23.8614 20.7158 23.5717 21.2297 23.0772 21.6358C22.3051 22.2699 21.3983 22.2448 20.8355 21.5594C20.2869 20.8914 20.3799 19.9434 21.152 19.3093C21.7853 18.7892 22.597 18.6455 23.4487 18.7451L23.4822 17.6716C22.5144 17.5367 21.4895 17.7392 20.5439 18.5158ZM17.0443 31.5441L18.094 30.682L17.9466 26.9826L21.5381 27.8535L22.5965 26.9842L17.8987 25.8453L17.7018 21.0243L16.6521 21.8864L16.8082 25.5787L13.2167 24.7078L12.1496 25.5842L16.8474 26.7232L17.0443 31.5441Z"></path>
<path fill-opacity="0.6" fill="white" d="M24.513 1.06306C23.3419 2.0249 23.2282 3.18357 23.9169 4.02218C24.6472 4.91139 25.6071 4.6799 26.7875 4.09783C27.7647 3.62211 28.3219 3.43085 28.7019 3.89353C29.0284 4.29115 28.929 4.966 28.3723 5.42318C27.8662 5.83879 27.1834 6.02435 26.4494 5.98556L26.4813 6.87935C27.3028 6.9068 28.1055 6.7197 28.8718 6.09034C29.8695 5.27099 30.0759 4.04831 29.3931 3.21693C28.6568 2.32048 27.7351 2.56902 26.5271 3.16167C25.5413 3.6565 24.9808 3.81419 24.5949 3.34428C24.2684 2.94666 24.3257 2.29426 25.0125 1.73022C25.6849 1.17805 26.431 1.02528 27.2164 1.08241L27.212 0.178032C26.2687 0.105398 25.3444 0.380266 24.513 1.06306ZM23.4674 8.45875C23.8795 8.12033 24.2604 7.62596 24.5757 6.91912L23.882 6.60511C23.6932 7.03857 23.4505 7.48002 23.0818 7.78282C22.3372 8.39436 21.7106 8.07366 21.3247 7.60375L21.2297 7.48808C21.6921 7.31411 22.155 7.06708 22.5237 6.76428C23.3479 6.08743 23.6105 5.03643 22.999 4.2918C22.3993 3.56163 21.4338 3.57988 20.6385 4.23298C20.1831 4.60703 19.842 5.23823 19.8879 5.85423L19.4663 5.34095L18.7651 5.91686L20.6234 8.17966C21.3834 9.10503 22.4626 9.28404 23.4674 8.45875ZM20.9643 4.90968C21.4342 4.52375 21.9975 4.47269 22.33 4.87753C22.6625 5.28238 22.4747 5.90869 21.9759 6.31836C21.6072 6.62117 21.2187 6.85555 20.8378 7.01094L20.4282 6.51211C20.1711 5.94849 20.5016 5.28967 20.9643 4.90968ZM16.4866 7.78814L15.8142 8.3403L17.3078 13.3722L18.0814 12.7369L16.8368 8.89263L20.3875 10.8429L21.1611 10.2076L16.4866 7.78814ZM16.7835 14.8439C16.5522 15.0339 16.5233 15.3966 16.7132 15.6279C16.8973 15.852 17.2587 15.8942 17.4901 15.7042C17.7359 15.5023 17.7576 15.1455 17.5735 14.9214C17.3835 14.6901 17.0293 14.642 16.7835 14.8439ZM13.5648 10.1877L12.8491 10.7755L15.9187 14.5131L16.6344 13.9253L13.5648 10.1877ZM13.0533 17.0116C13.5593 16.596 13.8011 15.9617 13.7224 15.4089L14.1677 15.9512L14.8834 15.3634L11.8138 11.6258L11.0981 12.2136L13.0871 14.6354C13.3914 15.1239 13.2222 15.8318 12.7017 16.2593C12.1957 16.6749 11.5208 16.5754 11.0636 16.0188L9.2112 13.7632L8.50995 14.3391L10.4633 16.7176C11.158 17.5634 12.2291 17.6885 13.0533 17.0116ZM7.71447 21.251L7.22167 20.6509C7.84798 20.8387 8.5448 20.7143 9.10869 20.2512C10.0919 19.4437 10.2079 18.1258 9.35296 17.0847C8.49799 16.0437 7.17668 15.8941 6.19348 16.7016C5.62959 17.1647 5.37471 17.7977 5.42861 18.4677L4.98331 17.9255C4.44895 17.2748 4.61864 16.4939 5.42111 15.8348C5.86933 15.4667 6.44223 15.2504 6.93069 15.2851L6.77328 14.5185C6.18155 14.5203 5.43101 14.7856 4.80206 15.3022C3.69596 16.2106 3.46606 17.5373 4.25573 18.4988L6.99876 21.8388L7.71447 21.251ZM6.52335 17.4717C7.18846 16.9255 8.05023 17.0167 8.60833 17.6963C9.1605 18.3686 9.08246 19.2317 8.41735 19.7779C7.75225 20.3241 6.88325 20.2389 6.33108 19.5665C5.77297 18.887 5.85825 18.018 6.52335 17.4717ZM1.43862 20.0013C0.621703 20.6723 0.389776 21.6133 0.971632 22.3218C1.58317 23.0664 2.40729 22.7285 3.17022 22.4046C3.95949 22.0832 4.26208 21.98 4.49957 22.2692C4.73112 22.5511 4.57257 22.9476 4.20387 23.2504C3.87855 23.5176 3.40168 23.7035 2.85616 23.7762L2.97149 24.5652C3.59601 24.5002 4.22417 24.2627 4.70854 23.8649C5.50377 23.2118 5.70678 22.2946 5.13551 21.6137C4.63677 21.0064 4.00837 21.1109 2.95214 21.5789C2.38259 21.8288 1.91037 22.035 1.62538 21.688C1.38789 21.3988 1.51676 20.9661 1.93606 20.6218C2.37706 20.2596 2.94015 20.0756 3.57526 20.0382L3.49349 19.2459C2.7484 19.2525 1.98806 19.5501 1.43862 20.0013Z"></path>
</svg>
