<svg xmlns="http://www.w3.org/2000/svg" fill="none" viewBox="0 0 44 25" height="25" width="44">
<path fill-opacity="0.87" fill="white" d="M10.4942 2.32875L10.176 3.04201L12.9915 3.31829C12.897 3.59102 12.7187 3.79912 12.4676 3.94368C12.0972 4.15548 11.56 4.22685 10.8561 4.15778L10.1635 4.0898L10.0779 4.96124C10.3237 4.98536 10.5618 5.08769 10.7699 5.26603C10.9579 5.41983 11.1303 5.61722 11.2849 5.88056L13.026 8.71347L14.8024 8.8878L12.6874 5.61211C12.4723 5.27517 12.3245 5.05762 12.2417 4.98182C12.847 4.90586 13.3403 4.70611 13.7329 4.38368C14.005 4.13967 14.2055 3.82094 14.3098 3.44766L15.4717 3.56169L15.7899 2.84843L14.4045 2.71248C14.4048 2.25003 14.2979 1.84475 14.094 1.5089L15.6469 1.6613L15.9651 0.948045L10.6582 0.427268L10.3401 1.14052L11.5355 1.25783C12.083 1.31155 12.4854 1.46384 12.7517 1.73814C12.9565 1.95 13.0643 2.23129 13.0862 2.58311L10.4942 2.32875ZM17.8481 9.18668L19.2335 9.32263L19.9867 1.64725L18.8694 1.53761L16.5695 2.78959L17.0429 3.82867L18.4434 3.12011L17.8481 9.18668ZM24.0641 9.93203C26.0304 10.125 27.577 8.61861 27.8061 6.2836C28.0341 3.95976 26.8099 2.18148 24.8436 1.98852C22.8661 1.79446 21.3084 3.29975 21.0804 5.62359C20.8512 7.9586 22.0866 9.73797 24.0641 9.93203ZM24.1891 8.65839C23.0495 8.54656 22.3547 7.35039 22.5104 5.76392C22.6661 4.17745 23.5791 3.15033 24.7186 3.26216C25.847 3.3729 26.5429 4.5579 26.3872 6.14436C26.2315 7.73083 25.3175 8.76912 24.1891 8.65839ZM31.8978 10.7008C33.8641 10.8937 35.4107 9.38736 35.6398 7.05235C35.8679 4.72851 34.6437 2.95023 32.6773 2.75727C30.6998 2.56321 29.1421 4.06849 28.9141 6.39233C28.6849 8.72734 29.9203 10.5067 31.8978 10.7008ZM32.0228 9.42713C30.8832 9.3153 30.1884 8.11913 30.3441 6.53267C30.4998 4.9462 31.4128 3.91908 32.5523 4.03091C33.6807 4.14164 34.3766 5.32664 34.2209 6.91311C34.0652 8.49958 33.1512 9.53787 32.0228 9.42713Z"></path>
<path fill-opacity="0.6" fill="white" d="M3.17431 20.9219C4.08672 21.0115 4.96301 20.7027 5.62848 20.1476L5.02958 19.4496C4.55562 19.8731 3.92031 20.121 3.25928 20.0561C1.98377 19.9309 1.01342 18.7077 1.14407 17.3763C1.27381 16.0543 2.46344 15.043 3.73894 15.1682C4.39997 15.2331 4.97499 15.5997 5.35758 16.1072L6.08073 15.539C5.53678 14.8558 4.73632 14.3919 3.82391 14.3023C2.02703 14.126 0.352139 15.4844 0.175806 17.2813C-0.000527445 19.0782 1.37743 20.7456 3.17431 20.9219ZM8.96213 16.4046C8.43144 16.3525 7.81257 16.4328 7.08981 16.7096L7.35828 17.4222C7.79826 17.2491 8.28204 17.1086 8.75686 17.1552C9.71582 17.2493 9.93209 17.9191 9.8727 18.5243L9.85808 18.6733C9.4081 18.4693 8.90609 18.3166 8.43126 18.27C7.36989 18.1659 6.441 18.7233 6.34689 19.6823C6.25462 20.6226 6.95027 21.2925 7.9744 21.393C8.56095 21.4505 9.24847 21.2454 9.6516 20.7774L9.58673 21.4384L10.4898 21.527L10.7758 18.6129C10.8927 17.4212 10.2563 16.5316 8.96213 16.4046ZM8.22256 20.6841C7.61739 20.6248 7.18295 20.2625 7.23411 19.7412C7.28527 19.2198 7.8609 18.9097 8.50331 18.9727C8.97813 19.0193 9.41863 19.1283 9.79778 19.2877L9.73474 19.9302C9.51799 20.5105 8.81842 20.7426 8.22256 20.6841ZM13.5528 21.9404C14.6049 22.0437 15.4343 21.5423 15.5238 20.6299C15.6179 19.6709 14.7963 19.3271 14.0278 19.0166C13.2424 18.6858 12.9555 18.5448 12.992 18.1724C13.0277 17.8093 13.4202 17.641 13.895 17.6876C14.3139 17.7287 14.7825 17.9345 15.2197 18.2688L15.6961 17.6294C15.2085 17.2337 14.5964 16.9575 13.9726 16.8963C12.9485 16.7958 12.1564 17.3008 12.0789 18.1862C12.0021 18.9683 12.5204 19.3387 13.5981 19.7547C14.1776 19.9807 14.6573 20.1688 14.6134 20.6157C14.5769 20.9881 14.1798 21.203 13.6398 21.15C13.0719 21.0942 12.5436 20.8262 12.0681 20.4035L11.5656 21.0216C12.0972 21.5438 12.8453 21.871 13.5528 21.9404ZM19.3916 17.428C18.7306 17.3632 18.1103 17.6501 17.7741 18.1059L18.0108 15.6945L17.0984 15.605L16.4597 22.1129L17.3721 22.2024L17.6654 19.2138C17.7266 18.59 18.3821 18.1374 19.1083 18.2086C19.76 18.2726 20.1668 18.8201 20.0965 19.537L19.8114 22.4418L20.7145 22.5304L21.0151 19.4673C21.122 18.378 20.453 17.5322 19.3916 17.428ZM25.1885 17.9969C24.4437 17.9238 23.8131 18.2191 23.3832 18.7691L23.6308 16.2461L22.7183 16.1565L22.0797 22.6644L22.9921 22.7539L23.0743 21.916C23.3883 22.5484 23.9494 22.9607 24.6942 23.0338C25.9604 23.158 27.0124 22.2085 27.1577 20.7281C27.302 19.2571 26.4547 18.1212 25.1885 17.9969ZM24.5494 22.2111C23.6835 22.1262 23.1301 21.3481 23.2287 20.3426C23.3274 19.3371 24.0206 18.6907 24.8865 18.7757C25.771 18.8625 26.3253 19.6313 26.2267 20.6368C26.128 21.6423 25.4338 22.2979 24.5494 22.2111ZM30.5376 18.5218C30.0069 18.4697 29.388 18.55 28.6652 18.8269L28.9337 19.5394C29.3737 19.3664 29.8575 19.2259 30.3323 19.2725C31.2912 19.3666 31.5075 20.0364 31.4481 20.6416L31.4335 20.7905C30.9835 20.5866 30.4815 20.4339 30.0067 20.3873C28.9453 20.2832 28.0164 20.8406 27.9223 21.7996C27.83 22.7399 28.5257 23.4097 29.5498 23.5102C30.1364 23.5678 30.8239 23.3627 31.227 22.8946L31.1622 23.5557L32.0653 23.6443L32.3512 20.7302C32.4682 19.5385 31.8317 18.6488 30.5376 18.5218ZM29.798 22.8014C29.1928 22.742 28.7584 22.3798 28.8095 21.8584C28.8607 21.337 29.4363 21.0269 30.0787 21.09C30.5536 21.1366 30.9941 21.2456 31.3732 21.405L31.3102 22.0474C31.0934 22.6277 30.3938 22.8599 29.798 22.8014ZM35.659 24.1098C36.3758 24.1801 37.0289 23.9434 37.541 23.5143L36.9729 22.8851C36.6421 23.191 36.1937 23.3538 35.7468 23.31C34.8624 23.2232 34.2129 22.3699 34.3052 21.4295C34.3966 20.4985 35.1995 19.7877 36.0747 19.8736C36.5216 19.9174 36.9213 20.1541 37.178 20.5083L37.8584 19.9922C37.447 19.4913 36.8515 19.1414 36.1625 19.0738C34.7846 18.9386 33.5085 19.9696 33.3742 21.3382C33.2399 22.7068 34.2903 23.9755 35.659 24.1098ZM43.3107 19.8881L42.1934 19.7784L39.5967 22.0052L40.0042 17.8528L39.0918 17.7633L38.4532 24.2712L39.3656 24.3607L39.4871 23.1224L40.3366 22.4162L41.6466 24.5845L42.7452 24.6924L41.0207 21.8629L43.3107 19.8881Z"></path>
</svg>
