<svg xmlns:xlink="http://www.w3.org/1999/xlink" xmlns="http://www.w3.org/2000/svg" fill="none" viewBox="0 0 34 39" height="39" width="34">
<path fill-opacity="0.87" fill="white" d="M3.42375 1.98017L2.57289 2.30611L4.66757 4.85664C4.36467 5.00372 4.04587 5.02827 3.7195 4.94041C3.23916 4.80952 2.73715 4.42526 2.21348 3.78763L1.69812 3.16012L0.908672 3.80847C1.09154 4.03114 1.20356 4.31199 1.22811 4.63078C1.25628 4.91271 1.23565 5.21776 1.14598 5.56257L0.245274 9.33594L1.56692 10.9452L2.52443 6.49811C2.62495 6.0427 2.68245 5.74126 2.67668 5.61042C3.23868 6.0471 3.81046 6.28932 4.40033 6.3472C4.8261 6.37037 5.25442 6.27282 5.64841 6.05093L6.51288 7.10353L7.36375 6.77759L6.33303 5.52257C6.71475 5.14128 6.96093 4.71878 7.06977 4.2735L8.22517 5.68033L9.07603 5.35439L5.12772 0.546849L4.27686 0.872791L5.16627 1.95575C5.57357 2.45169 5.77991 2.90929 5.77336 3.35531C5.76754 3.69904 5.62438 4.01999 5.35219 4.32827L3.42375 1.98017ZM2.65257 12.2671L6.85024 17.3783L8.00405 16.4307L5.41895 13.283L7.78997 13.7763C9.69183 14.2141 10.7798 14.0324 11.7008 13.276C12.9862 12.2204 13.0023 10.4446 11.8718 9.06813C10.9491 7.94468 9.7633 7.51193 8.36271 7.56059L8.27691 9.00382C9.29979 9.01114 10.1065 9.22989 10.705 9.95861C11.2203 10.5861 11.2727 11.4753 10.6148 12.0156C10.048 12.4811 9.26404 12.5995 7.83239 12.3009L3.68493 11.4193L2.65257 12.2671ZM10.0831 21.5623C11.546 23.3436 14.0646 23.3768 16.1799 21.6395C18.2851 19.9106 18.7422 17.4336 17.2792 15.6523C15.808 13.8609 13.2811 13.8176 11.1759 15.5466C9.06061 17.2838 8.61183 19.7709 10.0831 21.5623ZM11.2369 20.6147C10.3891 19.5824 10.8027 18.0224 12.2399 16.8421C13.6771 15.6618 15.2776 15.5676 16.1254 16.5999C16.965 17.6222 16.5614 19.1738 15.1242 20.3541C13.687 21.5345 12.0764 21.637 11.2369 20.6147Z"></path>
<path fill="url(#pattern0)" d="M14.7608 28.4549L23.073 38.576L33.1942 30.2638L24.882 20.1427L14.7608 28.4549Z"></path>
<defs>
<pattern height="1" width="1" patternContentUnits="objectBoundingBox" id="pattern0">
<use transform="scale(0.015625)" xlink:href="#image0"></use>
</pattern>

</defs>
</svg>
