<svg xmlns="http://www.w3.org/2000/svg" fill="none" viewBox="0 0 30 30" height="30" width="30">
<path fill-opacity="0.87" fill="white" d="M4.76114 14.8065L9.00334 11.3225L8.33361 10.507L5.47945 12.8511L5.9072 10.5242C6.24691 8.85061 6.10851 7.90383 5.45303 7.1057C4.56244 6.0213 3.0862 6.02797 1.97577 6.93994C1.03017 7.71654 0.683708 8.72741 0.754547 9.87495L1.77195 9.91098C1.74663 9.03112 1.93878 8.29225 2.58942 7.75789C3.17934 7.27341 4.0307 7.21339 4.56505 7.86403C5.00679 8.4019 5.12352 9.1631 4.874 10.4866L4.16978 14.0865L4.76114 14.8065ZM10.4477 0.156517L9.39797 1.01861L9.5454 4.71804L5.95389 3.84714L4.8955 4.71637L9.59332 5.85534L9.79022 10.6763L10.8399 9.81418L10.6838 6.12188L14.2753 6.99277L15.3424 6.11642L10.6446 4.97745L10.4477 0.156517Z"></path>
<path fill-opacity="0.6" fill="white" d="M5.79166 28.3276C6.96282 27.3657 7.07652 26.2071 6.3878 25.3684C5.65751 24.4792 4.6976 24.7107 3.51718 25.2928C2.53995 25.7685 1.9828 25.9598 1.60281 25.4971C1.27626 25.0995 1.37572 24.4246 1.93238 23.9674C2.43844 23.5518 3.12132 23.3663 3.8553 23.4051L3.82337 22.5113C3.00187 22.4838 2.19919 22.6709 1.43288 23.3003C0.435223 24.1196 0.22883 25.3423 0.91162 26.1737C1.64785 27.0701 2.56954 26.8216 3.77759 26.229C4.76334 25.7341 5.32385 25.5764 5.70977 26.0463C6.03632 26.444 5.97895 27.0964 5.29216 27.6604C4.61982 28.2126 3.87369 28.3653 3.08833 28.3082L3.09264 29.2126C4.036 29.2852 4.96028 29.0104 5.79166 28.3276ZM6.83724 20.9319C6.42517 21.2703 6.04432 21.7647 5.72902 22.4715L6.4227 22.7855C6.61147 22.3521 6.85419 21.9106 7.22289 21.6078C7.96752 20.9963 8.59407 21.317 8.98 21.7869L9.07499 21.9025C8.61259 22.0765 8.14966 22.3235 7.78097 22.6263C6.95682 23.3032 6.69416 24.3542 7.3057 25.0988C7.90537 25.829 8.87093 25.8107 9.66617 25.1576C10.1216 24.7836 10.4627 24.1524 10.4168 23.5364L10.8384 24.0497L11.5396 23.4738L9.68125 21.211C8.92127 20.2856 7.84213 20.1066 6.83724 20.9319ZM9.34042 24.4809C8.8705 24.8669 8.30717 24.9179 7.97468 24.5131C7.64219 24.1082 7.82994 23.4819 8.32877 23.0723C8.69747 22.7695 9.08604 22.5351 9.46686 22.3797L9.87653 22.8785C10.1336 23.4421 9.8031 24.101 9.34042 24.4809ZM13.8181 21.6025L14.4905 21.0503L12.9969 16.0184L12.2233 16.6537L13.4679 20.498L9.91716 18.5477L9.14361 19.183L13.8181 21.6025ZM13.5211 14.5467C13.7525 14.3568 13.7814 13.994 13.5914 13.7627C13.4074 13.5386 13.0459 13.4965 12.8146 13.6865C12.5688 13.8883 12.5471 14.2451 12.7311 14.4692C12.9211 14.7006 13.2753 14.7486 13.5211 14.5467ZM16.7399 19.2029L17.4556 18.6151L14.386 14.8775L13.6703 15.4653L16.7399 19.2029ZM17.2514 12.379C16.7453 12.7946 16.5036 13.4289 16.5823 13.9817L16.137 13.4395L15.4213 14.0273L18.4909 17.7649L19.2066 17.1771L17.2176 14.7552C16.9133 14.2667 17.0824 13.5588 17.603 13.1313C18.109 12.7157 18.7839 12.8152 19.241 13.3719L21.0935 15.6274L21.7947 15.0515L19.8414 12.673C19.1467 11.8272 18.0756 11.7021 17.2514 12.379ZM22.5902 8.13964L23.083 8.73968C22.4567 8.55193 21.7599 8.6763 21.196 9.13941C20.2128 9.94689 20.0968 11.2648 20.9517 12.3059C21.8067 13.3469 23.128 13.4965 24.1112 12.689C24.6751 12.2259 24.93 11.5929 24.8761 10.923L25.3214 11.4652C25.8557 12.1158 25.686 12.8968 24.8836 13.5558C24.4354 13.9239 23.8625 14.1402 23.374 14.1056L23.5314 14.8721C24.1231 14.8703 24.8737 14.605 25.5026 14.0885C26.6087 13.1801 26.8386 11.8533 26.049 10.8918L23.3059 7.55185L22.5902 8.13964ZM23.7813 11.9189C23.1162 12.4651 22.2545 12.3739 21.6964 11.6943C21.1442 11.022 21.2222 10.1589 21.8873 9.61271C22.5524 9.06648 23.4214 9.15175 23.9736 9.82409C24.5317 10.5037 24.4464 11.3727 23.7813 11.9189ZM28.8661 9.38929C29.683 8.71837 29.9149 7.77735 29.3331 7.06887C28.7215 6.32425 27.8974 6.66212 27.1345 6.98605C26.3452 7.3074 26.0426 7.41065 25.8051 7.12147C25.5736 6.83952 25.7321 6.44299 26.1008 6.14018C26.4261 5.873 26.903 5.68716 27.4485 5.61441L27.3332 4.82542C26.7087 4.89042 26.0805 5.12789 25.5961 5.52568C24.8009 6.17879 24.5979 7.09606 25.1692 7.77691C25.6679 8.38418 26.2963 8.27968 27.3525 7.81171C27.9221 7.56185 28.3943 7.35561 28.6793 7.70263C28.9168 7.9918 28.7879 8.42449 28.3686 8.76885C27.9276 9.13103 27.3645 9.31505 26.7294 9.35243L26.8112 10.1448C27.5563 10.1381 28.3166 9.84052 28.8661 9.38929Z"></path>
</svg>
