<svg xmlns:xlink="http://www.w3.org/1999/xlink" xmlns="http://www.w3.org/2000/svg" fill="none" viewBox="0 0 15 42" height="42" width="15">
<path fill-opacity="0.87" fill="white" d="M4.8298 2.03426L9.15283 0.0897139L10.1174 0.184367L10.0406 0.966429C9.99543 1.42698 10.0574 1.82347 10.2266 2.15591C10.4044 2.4892 10.6716 2.7172 11.028 2.83991L11.2774 0.298207L12.242 0.392861L11.9938 2.92153C12.3317 2.87572 12.6212 2.74183 12.8623 2.51984C13.1121 2.2987 13.2583 1.97089 13.301 1.53642L13.402 0.506701L14.3666 0.601354L13.7897 6.47985L12.8252 6.3852L13.026 4.3388C12.6659 4.61053 12.2605 4.76376 11.8096 4.79847L11.6651 6.27136L10.7006 6.1767L10.8425 4.72989C10.208 4.57989 9.72834 4.28278 9.40346 3.83856C9.08727 3.39518 8.89555 2.84559 8.82831 2.18977L4.60212 4.35438L4.8298 2.03426ZM3.87106 10.1949C3.67024 12.2413 4.73253 13.7537 6.58341 13.9353C8.38215 14.1118 9.53314 12.843 9.68919 11.2528C9.76466 10.4838 9.5876 9.87419 9.31954 9.38729L11.6189 9.69189L11.2058 13.902L12.6917 14.0478L13.2545 8.31269L8.50977 7.71547L7.93181 8.77735C8.27296 9.32406 8.44746 9.9597 8.37839 10.6636C8.2735 11.7324 7.59053 12.3891 6.67813 12.2996C5.80483 12.2139 5.16876 11.454 5.27621 10.3591C5.36447 9.45976 5.90125 8.68336 6.64683 8.05905L5.58143 6.98067C4.6692 7.6939 4.01431 8.73507 3.87106 10.1949ZM3.02387 18.8279C2.79875 21.122 4.55619 22.9263 7.28037 23.1936C9.99152 23.4597 12.0662 22.0314 12.2913 19.7374C12.5177 17.4303 10.7615 15.613 8.05039 15.3469C5.32621 15.0796 3.25027 16.5209 3.02387 18.8279ZM4.50979 18.9738C4.64026 17.6443 6.03579 16.8337 7.88667 17.0153C9.73755 17.197 10.9359 18.2621 10.8054 19.5916C10.6762 20.908 9.2937 21.7199 7.44282 21.5382C5.59194 21.3566 4.3806 20.2902 4.50979 18.9738Z"></path>
<path fill="url(#pattern0)" d="M1.45773 27.0094L0.178628 40.0437L13.213 41.3228L14.4921 28.2885L1.45773 27.0094Z"></path>
<defs>
<pattern height="1" width="1" patternContentUnits="objectBoundingBox" id="pattern0">
<use transform="scale(0.015625)" xlink:href="#image0"></use>
</pattern>

</defs>
</svg>
