<svg xmlns="http://www.w3.org/2000/svg" fill="none" viewBox="0 0 27 60" height="60" width="27">
<path fill-opacity="0.87" fill="white" d="M8.44655 59.0109L8.81822 55.2235C8.95308 53.8493 8.18929 52.7817 6.96034 52.6611C6.11124 52.5778 5.36812 53.0237 4.84469 53.8748C4.52164 53.1437 4.05835 52.6922 3.25395 52.6132C2.13672 52.5036 1.25468 53.3307 1.12859 54.6155L0.771177 58.2577L8.44655 59.0109ZM4.07719 57.4429L1.87625 57.2269L2.09552 54.9924C2.17117 54.2215 2.69413 53.7201 3.33095 53.7826C3.96777 53.8451 4.37211 54.4375 4.29646 55.2084L4.07719 57.4429ZM7.56295 57.7849L5.03801 57.5372L5.27373 55.1351C5.35815 54.2748 5.94245 53.7231 6.67982 53.7954C7.4172 53.8678 7.88309 54.5226 7.79867 55.3829L7.56295 57.7849ZM8.59568 48.7555C8.4981 49.7498 7.73635 50.3857 6.76127 50.4366L7.2075 45.8895C5.14062 45.6867 3.70017 46.5718 3.52695 48.337C3.37017 49.9347 4.51773 51.3445 6.24943 51.5144C8.02583 51.6887 9.42206 50.4496 9.57994 48.8408C9.65997 48.0252 9.4123 46.9857 8.91529 46.418L8.13229 47.0406C8.45582 47.422 8.65488 48.1522 8.59568 48.7555ZM4.5145 48.3888C4.61207 47.3945 5.31379 46.9106 6.21963 46.8754L5.87976 50.3388C4.95883 50.068 4.42679 49.2826 4.5145 48.3888ZM9.0622 42.0474C9.17304 42.1824 9.24049 42.4146 9.21637 42.6604C9.18457 42.9844 8.86778 43.224 8.46558 43.1845L5.1474 42.8589L5.28116 41.4959L4.34268 41.4038L4.20893 42.7668L2.62246 42.6111L2.51611 43.6948L4.10258 43.8505L4.01706 44.722L4.95554 44.8141L5.04105 43.9426L8.43743 44.2759C9.36474 44.3669 10.0741 43.8049 10.1618 42.9111C10.2024 42.4977 10.0877 42.0578 9.86139 41.7198L9.0622 42.0474ZM9.47762 37.8141C9.58846 37.9491 9.65591 38.1813 9.63179 38.4271C9.59999 38.7511 9.2832 38.9907 8.881 38.9513L5.56282 38.6256L5.69658 37.2626L4.75811 37.1705L4.62435 38.5336L3.03788 38.3779L2.93153 39.4616L4.518 39.6173L4.43248 40.4887L5.37096 40.5808L5.45648 39.7094L8.85286 40.0427C9.78016 40.1337 10.4895 39.5716 10.5773 38.6778C10.6178 38.2644 10.5031 37.8245 10.2768 37.4865L9.47762 37.8141ZM10.0775 33.6554C9.97992 34.6497 9.21816 35.2856 8.24309 35.3366L8.68931 30.7894C6.62244 30.5866 5.18199 31.4717 5.00876 33.2369C4.85198 34.8346 5.99954 36.2444 7.73125 36.4143C9.50765 36.5886 10.9039 35.3495 11.0618 33.7407C11.1418 32.9251 10.8941 31.8856 10.3971 31.318L9.61411 31.9405C9.93763 32.3219 10.1367 33.0521 10.0775 33.6554ZM5.99631 33.2887C6.09389 32.2944 6.7956 31.8105 7.70145 31.7754L7.36157 35.2388C6.44064 34.9679 5.9086 34.1825 5.99631 33.2887ZM6.76172 28.1328L5.65566 28.0243L5.54712 29.1303L11.3232 29.6971L11.4317 28.5911L8.14708 28.2687C7.15144 28.0695 6.5756 27.1557 6.69291 25.9603L5.73209 25.866C5.63452 26.8603 6.03818 27.6896 6.76172 28.1328ZM12.0618 22.1702L12.1693 21.0753L4.35984 20.309L4.25239 21.4039L12.0618 22.1702ZM6.94159 14.9203L10.6843 15.2876C11.3571 15.4438 11.8142 16.188 11.7352 16.9924C11.6585 17.7745 11.0015 18.2627 10.1412 18.1783L6.65544 17.8362L6.54909 18.92L10.2248 19.2807C11.5319 19.4089 12.547 18.6062 12.6719 17.3325C12.7487 16.5504 12.4156 15.8071 11.8798 15.4049L12.7177 15.4871L12.8262 14.381L7.05013 13.8142L6.94159 14.9203ZM13.3853 10.0634C13.4697 9.20317 13.1856 8.41954 12.6707 7.80501L11.9157 8.48668C12.2828 8.88366 12.4782 9.42171 12.4256 9.95798C12.3214 11.0193 11.2974 11.7987 10.169 11.688C9.05177 11.5783 8.19881 10.6148 8.30187 9.56459C8.3545 9.02832 8.63845 8.54859 9.06347 8.24062L8.44425 7.4241C7.84308 7.91782 7.42328 8.63238 7.34215 9.45913C7.17989 11.1126 8.41703 12.644 10.0594 12.8052C11.7017 12.9664 13.2241 11.7058 13.3853 10.0634ZM8.31927 0.881394L8.1877 2.22207L10.8598 5.33811L5.87696 4.84913L5.76952 5.94401L13.579 6.71038L13.6864 5.61549L12.2005 5.46967L11.353 4.45028L13.955 2.87827L14.0844 1.55994L10.6891 3.62937L8.31927 0.881394ZM15.9828 54.5186C15.906 55.3007 16.2392 56.044 16.775 56.4463L15.937 56.364L15.8285 57.4701L21.6046 58.0369L21.7131 56.9309L17.9704 56.5636C17.2977 56.4073 16.8405 55.6631 16.9195 54.8587C16.9962 54.0766 17.6532 53.5884 18.5135 53.6728L21.9993 54.0149L22.1056 52.9312L18.4299 52.5705C17.1228 52.4422 16.1078 53.245 15.9828 54.5186ZM21.6716 48.6176C21.5741 49.612 20.8123 50.2479 19.8372 50.2988L20.2835 45.7517C18.2166 45.5489 16.7761 46.434 16.6029 48.1992C16.4461 49.7968 17.5937 51.2066 19.3254 51.3766C21.1018 51.5509 22.498 50.3118 22.6559 48.703C22.7359 47.8874 22.4883 46.8479 21.9913 46.2802L21.2083 46.9027C21.5318 47.2842 21.7309 48.0143 21.6716 48.6176ZM17.5905 48.251C17.688 47.2567 18.3898 46.7728 19.2956 46.7376L18.9557 50.201C18.0348 49.9302 17.5028 49.1448 17.5905 48.251ZM23.414 39.5983L20.2374 41.5087L17.6281 39.1321L17.5075 40.361L19.3503 42.0421L17.2169 43.3217L17.0941 44.573L20.1279 42.7388L22.8614 45.2292L22.982 44.0002L21.015 42.2054L23.2923 40.8385L23.414 39.5983ZM22.7474 35.7015C22.8582 35.8365 22.9257 36.0687 22.9016 36.3145C22.8698 36.6385 22.553 36.8781 22.1508 36.8387L18.8326 36.513L18.9663 35.15L18.0279 35.0579L17.8941 36.4209L16.3076 36.2653L16.2013 37.349L17.7878 37.5047L17.7022 38.3761L18.6407 38.4682L18.7262 37.5968L22.1226 37.93C23.0499 38.021 23.7593 37.459 23.847 36.5652C23.8876 36.1518 23.7728 35.7119 23.5466 35.3739L22.7474 35.7015ZM23.4765 28.2715C23.5874 28.4065 23.6548 28.6387 23.6307 28.8845C23.5989 29.2085 23.2821 29.4481 22.8799 29.4086L19.5617 29.083L19.6955 27.72L18.757 27.6279L18.6232 28.9909L17.0368 28.8352L16.9304 29.919L18.5169 30.0746L18.4314 30.9461L19.3699 31.0382L19.4554 30.1667L22.8517 30.5C23.7791 30.591 24.4884 30.029 24.5762 29.1352C24.6167 28.7218 24.502 28.2819 24.2757 27.9439L23.4765 28.2715ZM17.9825 25.6354C18.0175 25.2779 17.7343 24.9455 17.3768 24.9104C17.0305 24.8764 16.688 25.1474 16.653 25.5049C16.6157 25.8848 16.9 26.2059 17.2463 26.2399C17.6039 26.275 17.9452 26.0152 17.9825 25.6354ZM24.6645 26.8551L24.7731 25.749L18.997 25.1822L18.8885 26.2883L24.6645 26.8551ZM19.6536 17.1115C19.5681 17.9829 19.9427 18.7641 20.6314 19.1024C19.8835 19.3674 19.3697 20.0051 19.2875 20.843C19.2151 21.5804 19.5246 22.2199 20.0659 22.5663L19.2615 22.4873L19.1529 23.5934L24.929 24.1602L25.0375 23.0542L21.4289 22.7C20.6357 22.6222 20.1452 21.9875 20.2264 21.1608C20.2976 20.4346 20.9391 19.9899 21.7882 20.0732L25.2963 20.4175L25.4026 19.3338L21.794 18.9796C21.0007 18.9018 20.5103 18.2671 20.5914 17.4404C20.6627 16.7142 21.3042 16.2695 22.1533 16.3529L25.6614 16.6971L25.7677 15.6134L22.092 15.2527C20.7849 15.1244 19.7721 15.9049 19.6536 17.1115ZM25.3344 11.293C25.2369 12.2873 24.4751 12.9232 23.5 12.9741L23.9462 8.42702C21.8794 8.22419 20.4389 9.1093 20.2657 10.8745C20.1089 12.4722 21.2565 13.882 22.9882 14.0519C24.7646 14.2262 26.1608 12.9871 26.3187 11.3783C26.3987 10.5627 26.1511 9.52321 25.654 8.95556L24.871 9.57808C25.1946 9.95951 25.3936 10.6897 25.3344 11.293ZM21.2532 10.9263C21.3508 9.93198 22.0525 9.44813 22.9584 9.41294L22.6185 12.8764C21.6976 12.6055 21.1655 11.8201 21.2532 10.9263ZM24.2813 6.73689L24.3559 5.97717L19.0429 5.1738L18.9146 6.48096L24.2813 6.73689ZM26.7866 6.6105C26.826 6.20829 26.5115 5.85031 26.0981 5.80974C25.7183 5.77247 25.3401 6.06248 25.3006 6.46468C25.259 6.88923 25.5735 7.24721 25.9534 7.28449C26.3668 7.32506 26.7449 7.03505 26.7866 6.6105Z"></path>
</svg>
