<svg xmlns="http://www.w3.org/2000/svg" fill="none" viewBox="0 0 68 71" height="71" width="68">
<path fill="#FFDDA1" d="M33.612 66.5025C51.6942 66.6934 66.5073 52.1896 66.6982 34.1075C66.889 16.0253 52.3852 1.21215 34.3031 1.02132C16.221 0.830483 1.4078 15.3342 1.21697 33.4164C1.02613 51.4985 15.5299 66.3117 33.612 66.5025ZM33.679 60.1939C48.1447 60.3466 59.9952 48.7436 60.1479 34.2779C60.3005 19.8122 48.6975 7.96164 34.2318 7.80897C19.7661 7.6563 7.91558 19.2593 7.76291 33.725C7.61025 48.1907 19.2133 60.0413 33.679 60.1939Z" clip-rule="evenodd" fill-rule="evenodd"></path>
<g filter="url(#filter0_d)">
<circle fill="#FFDDA1" transform="rotate(0.604661 33.9554 34.0014)" r="29.0004" cy="34.0014" cx="33.9554"></circle>
</g>
<path fill-opacity="0.87" fill="black" d="M20.0126 39.8267C22.9644 39.8578 24.6728 38.3098 24.6962 36.0959C24.72 33.846 23.0008 32.9998 20.433 32.3967C18.4759 31.926 17.5617 31.5563 17.5724 30.5484C17.5815 29.6844 18.4354 28.9374 19.6773 28.9505C20.9013 28.9634 22.1377 29.4985 23.2078 30.4459L24.4492 28.8029C23.2184 27.7278 21.7496 27.0463 19.7877 27.0256C17.1778 26.998 15.3252 28.5626 15.3024 30.7224C15.2779 33.0443 17.052 33.8011 19.6016 34.422C21.5765 34.9109 22.4549 35.2622 22.4441 36.2881C22.4348 37.1701 21.6348 37.9177 20.1049 37.9015C18.485 37.8844 17.1779 37.2226 16.0548 36.1847L14.742 37.7729C16.0964 39.0653 17.8887 39.8042 20.0126 39.8267ZM32.2281 30.235C30.8421 30.2204 29.7196 30.8386 28.9704 31.8927L28.986 30.4168L26.7901 30.3937L26.6592 42.795L28.8551 42.8181L28.9033 38.2464C29.6301 39.3161 30.7394 39.9579 32.1253 39.9725C34.5912 39.9985 36.4123 38.0016 36.4425 35.1398C36.4725 32.2959 34.6939 30.2611 32.2281 30.235ZM31.5511 38.0943C30.0032 38.078 28.9365 36.8067 28.955 35.0608C28.9734 33.3149 30.0664 32.0843 31.6143 32.1007C33.1803 32.1172 34.2831 33.3709 34.2647 35.1168C34.2462 36.8627 33.117 38.1109 31.5511 38.0943ZM39.6084 29.1249C40.2923 29.1321 40.8566 28.544 40.8636 27.878C40.8706 27.2121 40.3187 26.6302 39.6348 26.623C38.9328 26.6156 38.3688 27.1857 38.3617 27.8516C38.3547 28.5176 38.9064 29.1174 39.6084 29.1249ZM38.3794 39.8225L40.5753 39.8457L40.6735 30.5402L38.4776 30.517L38.3794 39.8225ZM48.1784 30.4034C46.9545 30.3905 45.8683 30.973 45.2832 31.8309L45.2963 30.589L43.1004 30.5658L43.0022 39.8713L45.1981 39.8944L45.2602 34.0088C45.4146 33.0203 46.3768 32.2565 47.5287 32.2686C48.6806 32.2808 49.4811 33.1893 49.4678 34.4492L49.4098 39.9389L51.5337 39.9613L51.5962 34.0396C51.6184 31.9338 50.2123 30.4248 48.1784 30.4034Z"></path>
<defs>
<filter color-interpolation-filters="sRGB" filterUnits="userSpaceOnUse" height="66.0937" width="66.0937" y="4.69659" x="0.908539" id="filter0_d">
<feFlood result="BackgroundImageFix" flood-opacity="0"></feFlood>
<feColorMatrix values="0 0 0 0 0 0 0 0 0 0 0 0 0 0 0 0 0 0 127 0" type="matrix" in="SourceAlpha"></feColorMatrix>
<feOffset dy="3.74199"></feOffset>
<feGaussianBlur stdDeviation="1.871"></feGaussianBlur>
<feColorMatrix values="0 0 0 0 0.35 0 0 0 0 0.223404 0 0 0 0 0 0 0 0 0.25 0" type="matrix"></feColorMatrix>
<feBlend result="effect1_dropShadow" in2="BackgroundImageFix" mode="normal"></feBlend>
<feBlend result="shape" in2="effect1_dropShadow" in="SourceGraphic" mode="normal"></feBlend>
</filter>
</defs>
</svg>
